<svg width="18" height="18" viewBox="0 0 18 18" fill="none" xmlns="http://www.w3.org/2000/svg">
<path d="M16.3125 2.8125H1.6875C1.37637 2.8125 1.125 3.06387 1.125 3.375V6.1875H16.875V3.375C16.875 3.06387 16.6236 2.8125 16.3125 2.8125ZM1.125 14.625C1.125 14.9361 1.37637 15.1875 1.6875 15.1875H16.3125C16.6236 15.1875 16.875 14.9361 16.875 14.625V7.73438H1.125V14.625ZM11.3027 11.3906C11.3027 11.3133 11.366 11.25 11.4434 11.25H14.3438C14.4211 11.25 14.4844 11.3133 14.4844 11.3906V12.6562C14.4844 12.7336 14.4211 12.7969 14.3438 12.7969H11.4434C11.366 12.7969 11.3027 12.7336 11.3027 12.6562V11.3906Z" fill="#828282"/>
</svg>
