<svg width="24" height="24" viewBox="0 0 24 24" fill="none" xmlns="http://www.w3.org/2000/svg">
<path d="M12 3.28125C16.8141 3.28125 20.7188 7.18594 20.7188 12C20.7188 16.8141 16.8141 20.7188 12 20.7188C7.18594 20.7188 3.28125 16.8141 3.28125 12C3.28125 7.18594 7.18594 3.28125 12 3.28125ZM9.5625 8.92734C9.5625 9.16875 9.67734 9.39375 9.87188 9.53437L13.2797 12L9.87188 14.4633C9.67734 14.6039 9.5625 14.8313 9.5625 15.0703V16.1695C9.5625 16.3219 9.73594 16.4109 9.86016 16.3219L15.6258 12.15C15.6497 12.1327 15.6692 12.11 15.6827 12.0837C15.6962 12.0575 15.7032 12.0284 15.7032 11.9988C15.7032 11.9693 15.6962 11.9402 15.6827 11.9139C15.6692 11.8876 15.6497 11.8649 15.6258 11.8477L9.86016 7.67578C9.73594 7.58672 9.5625 7.67578 9.5625 7.82812V8.92734Z" fill="#E7E9EA"/>
<path d="M12 1.5C17.7984 1.5 22.5 6.20156 22.5 12C22.5 17.7984 17.7984 22.5 12 22.5C6.20156 22.5 1.5 17.7984 1.5 12C1.5 6.20156 6.20156 1.5 12 1.5ZM12 20.7188C16.8141 20.7188 20.7188 16.8141 20.7188 12C20.7188 7.18594 16.8141 3.28125 12 3.28125C7.18594 3.28125 3.28125 7.18594 3.28125 12C3.28125 16.8141 7.18594 20.7188 12 20.7188Z" fill="#333333"/>
<path d="M9.8601 7.67608L15.6257 11.848C15.6497 11.8652 15.6692 11.8879 15.6827 11.9142C15.6961 11.9405 15.7031 11.9696 15.7031 11.9991C15.7031 12.0287 15.6961 12.0578 15.6827 12.084C15.6692 12.1103 15.6497 12.133 15.6257 12.1503L9.8601 16.3222C9.73588 16.4112 9.56244 16.3222 9.56244 16.1698V15.0706C9.56244 14.8315 9.67729 14.6042 9.87182 14.4636L13.2796 12.0003L9.87182 9.53467C9.67729 9.39405 9.56244 9.16905 9.56244 8.92764V7.82842C9.56244 7.67608 9.73588 7.58702 9.8601 7.67608Z" fill="#333333"/>
</svg>
