<svg width="24" height="24" viewBox="0 0 24 24" fill="none" xmlns="http://www.w3.org/2000/svg">
<path d="M18.668 20H4.0013V5.33333H12.8146L14.148 4H4.0013C3.64768 4 3.30854 4.14048 3.05849 4.39052C2.80844 4.64057 2.66797 4.97971 2.66797 5.33333V20C2.66797 20.3536 2.80844 20.6928 3.05849 20.9428C3.30854 21.1929 3.64768 21.3333 4.0013 21.3333H18.668C19.0216 21.3333 19.3607 21.1929 19.6108 20.9428C19.8608 20.6928 20.0013 20.3536 20.0013 20V10L18.668 11.3333V20Z" fill="#4D966D"/>
<path d="M22.3517 3.89411L20.105 1.64744C20.0053 1.54746 19.8869 1.46814 19.7564 1.41402C19.626 1.35989 19.4862 1.33203 19.345 1.33203C19.2038 1.33203 19.064 1.35989 18.9336 1.41402C18.8032 1.46814 18.6847 1.54746 18.585 1.64744L9.44501 10.8408L8.70501 14.0474C8.67349 14.2029 8.6768 14.3634 8.71472 14.5174C8.75263 14.6714 8.82421 14.8151 8.92429 14.9381C9.02438 15.0611 9.15049 15.1605 9.29355 15.2289C9.43662 15.2974 9.59308 15.3333 9.75168 15.3341C9.83365 15.3431 9.91637 15.3431 9.99834 15.3341L13.2317 14.6208L22.3517 5.41411C22.4517 5.3144 22.531 5.19595 22.5851 5.06554C22.6392 4.93512 22.6671 4.79531 22.6671 4.65411C22.6671 4.51291 22.6392 4.3731 22.5851 4.24268C22.531 4.11227 22.4517 3.99382 22.3517 3.89411ZM12.5383 13.3874L10.0983 13.9274L10.665 11.5074L17.545 4.58078L19.425 6.46078L12.5383 13.3874ZM20.1783 5.70744L18.2983 3.82744L19.3317 2.77411L21.225 4.66744L20.1783 5.70744Z" fill="#4D966D"/>
</svg>
