<svg width="20" height="20" viewBox="0 0 20 20" fill="none" xmlns="http://www.w3.org/2000/svg">
<path fill-rule="evenodd" clip-rule="evenodd" d="M3.70692 2.29341C3.51832 2.11125 3.26571 2.01045 3.00352 2.01273C2.74132 2.01501 2.49051 2.12018 2.3051 2.30559C2.11969 2.491 2.01452 2.74181 2.01224 3.00401C2.00997 3.2662 2.11076 3.5188 2.29292 3.70741L16.2929 17.7074C16.4815 17.8896 16.7341 17.9904 16.9963 17.9881C17.2585 17.9858 17.5093 17.8806 17.6947 17.6952C17.8801 17.5098 17.9853 17.259 17.9876 16.9968C17.9899 16.7346 17.8891 16.482 17.7069 16.2934L16.2339 14.8204C17.7914 13.5785 18.9432 11.9003 19.5419 10.0004C18.2679 5.94341 14.4779 3.00041 9.99992 3.00041C8.43235 2.99828 6.88642 3.36626 5.48792 4.07441L3.70792 2.29341H3.70692ZM7.96792 6.55341L9.48192 8.06841C9.82101 7.97836 10.1778 7.97895 10.5166 8.07014C10.8554 8.16132 11.1643 8.33989 11.4124 8.58797C11.6604 8.83606 11.839 9.14495 11.9302 9.48374C12.0214 9.82252 12.022 10.1793 11.9319 10.5184L13.4459 12.0324C13.8969 11.2684 14.0811 10.3762 13.9696 9.49608C13.858 8.61596 13.4571 7.7979 12.8297 7.17059C12.2024 6.54327 11.3844 6.1423 10.5042 6.03076C9.62412 5.91921 8.7319 6.10342 7.96792 6.55441V6.55341Z" fill="#828282"/>
<path d="M12.454 16.6971L9.75001 13.9921C8.77769 13.9312 7.86103 13.5175 7.17206 12.8288C6.4831 12.14 6.06918 11.2234 6.00801 10.2511L2.33501 6.57812C1.49022 7.58414 0.852357 8.74704 0.458008 10.0001C1.73201 14.0571 5.52301 17.0001 10 17.0001C10.847 17.0001 11.669 16.8951 12.454 16.6971Z" fill="#828282"/>
</svg>
