<svg width="24" height="27" viewBox="0 0 24 27" fill="none" xmlns="http://www.w3.org/2000/svg">
<path d="M17.8839 11.1687C21.2675 8.40462 28.1776 -1.55548 17.3597 0.207789C12.6417 0.922629 5.73162 5.49761 4.34959 10.7874C3.63475 9.35774 2.8246 8.02338 1.96679 6.68901C0.632424 4.87808 -0.844913 6.30776 0.584768 8.11869C4.82283 13.2498 7.26632 19.6263 7.54255 26.2756C7.87614 23.0827 7.35192 19.1749 6.06521 15.3624C6.68474 15.553 7.39958 15.6483 8.01911 15.6483C10.2113 19.2702 13.5949 22.3678 17.3597 23.7975C20.8386 25.1795 25.4612 24.3694 23.555 18.7936C22.5542 15.7437 20.219 13.0749 17.8839 11.1687ZM18.3605 1.4945C24.3651 0.827317 17.9316 8.30931 15.8347 9.69134C13.8808 8.40462 11.4027 7.26088 9.01988 7.59447C10.7355 5.35464 14.9292 1.92341 18.3605 1.4945ZM8.97223 9.21478C10.5925 9.07181 12.3558 9.97727 13.7378 10.9304C12.4035 11.5976 10.9738 11.9788 9.49644 12.1218C7.30427 12.1218 6.82771 9.4054 8.97223 9.21478ZM17.2644 20.8428C14.4527 20.0327 11.7839 17.7452 9.87769 15.4577C11.4503 15.1241 13.023 14.5046 14.4527 13.6468C14.9769 13.4085 15.5011 13.0273 15.9777 12.6937C17.6456 14.2187 19.4089 16.2679 20.0761 18.603C20.7433 21.1288 18.9323 21.3194 17.2644 20.8428Z" fill="#F5A623"/>
</svg>
