<svg width="48" height="48" viewBox="0 0 48 48" fill="none" xmlns="http://www.w3.org/2000/svg">
<path d="M13.1988 31.1999C11.0496 31.197 8.98333 30.3706 7.42503 28.8905C5.86673 27.4105 4.93499 25.3895 4.82154 23.2433C4.70808 21.0972 5.42154 18.9892 6.8151 17.3531C8.20866 15.717 10.1763 14.6773 12.3132 14.4479C11.684 11.9804 12.0607 9.36404 13.3606 7.17437C14.6604 4.98469 16.7769 3.40106 19.2444 2.77186C21.7118 2.14266 24.3282 2.51943 26.5179 3.81929C28.7075 5.11914 30.2912 7.2356 30.9204 9.70307C32.3878 9.49874 33.8817 9.59854 35.3089 9.99626C36.7362 10.394 38.0663 11.0811 39.2166 12.0149C40.3669 12.9488 41.3128 14.1093 41.9954 15.4243C42.678 16.7393 43.0827 18.1807 43.1843 19.6589C43.286 21.137 43.0824 22.6203 42.5863 24.0163C42.0901 25.4124 41.3121 26.6915 40.3004 27.774C39.2888 28.8565 38.0652 29.7193 36.7059 30.3086C35.3465 30.898 33.8804 31.2014 32.3988 31.1999H26.3988V22.5911L29.502 25.6943C29.9546 26.1314 30.5609 26.3734 31.1901 26.3679C31.8194 26.3624 32.4214 26.11 32.8663 25.665C33.3113 25.2201 33.5637 24.6181 33.5692 23.9888C33.5747 23.3596 33.3328 22.7533 32.8956 22.3007L25.6956 15.1007C25.2455 14.6507 24.6352 14.398 23.9988 14.398C23.3624 14.398 22.752 14.6507 22.302 15.1007L15.102 22.3007C14.6648 22.7533 14.4229 23.3596 14.4284 23.9888C14.4338 24.6181 14.6862 25.2201 15.1312 25.665C15.5762 26.11 16.1781 26.3624 16.8074 26.3679C17.4367 26.3734 18.0429 26.1314 18.4956 25.6943L21.5988 22.5935V31.1999H13.1988Z" fill="#828282"/>
<path d="M21.5999 31.2002H26.3999V43.2002C26.3999 43.8367 26.147 44.4472 25.6969 44.8973C25.2468 45.3473 24.6364 45.6002 23.9999 45.6002C23.3633 45.6002 22.7529 45.3473 22.3028 44.8973C21.8527 44.4472 21.5999 43.8367 21.5999 43.2002V31.2002Z" fill="#828282"/>
</svg>
