<svg width="40" height="40" viewBox="0 0 40 40" fill="none" xmlns="http://www.w3.org/2000/svg">
<rect width="40" height="40" rx="6" fill="#284065" fill-opacity="0.1"/>
<path d="M12.5 21.0859V27.4995C12.5 27.6985 12.579 27.8892 12.7197 28.0299C12.8603 28.1705 13.0511 28.2495 13.25 28.2495H26.75C26.9489 28.2495 27.1397 28.1705 27.2803 28.0299C27.421 27.8892 27.5 27.6985 27.5 27.4995V21.0861" stroke="black" stroke-width="1.5" stroke-linecap="round" stroke-linejoin="round"/>
<path d="M13.0657 11.75H26.9343C27.0973 11.75 27.2558 11.8031 27.3859 11.9012C27.516 11.9994 27.6106 12.1372 27.6554 12.294L29 17H11L12.3446 12.294C12.3894 12.1372 12.484 11.9994 12.6141 11.9012C12.7442 11.8031 12.9027 11.75 13.0657 11.75Z" stroke="black" stroke-width="1.5" stroke-linecap="round" stroke-linejoin="round"/>
<path d="M17 17V18.5C17 19.2956 16.6839 20.0587 16.1213 20.6213C15.5587 21.1839 14.7956 21.5 14 21.5C13.2044 21.5 12.4413 21.1839 11.8787 20.6213C11.3161 20.0587 11 19.2956 11 18.5V17" stroke="black" stroke-width="1.5" stroke-linecap="round" stroke-linejoin="round"/>
<path d="M23 17V18.5C23 19.2956 22.6839 20.0587 22.1213 20.6213C21.5587 21.1839 20.7956 21.5 20 21.5C19.2044 21.5 18.4413 21.1839 17.8787 20.6213C17.3161 20.0587 17 19.2956 17 18.5V17" stroke="black" stroke-width="1.5" stroke-linecap="round" stroke-linejoin="round"/>
<path d="M29 17V18.5C29 19.2956 28.6839 20.0587 28.1213 20.6213C27.5587 21.1839 26.7956 21.5 26 21.5C25.2044 21.5 24.4413 21.1839 23.8787 20.6213C23.3161 20.0587 23 19.2956 23 18.5V17" stroke="black" stroke-width="1.5" stroke-linecap="round" stroke-linejoin="round"/>
</svg>
