<svg width="36" height="36" viewBox="0 0 36 36" fill="none" xmlns="http://www.w3.org/2000/svg">
<circle opacity="0.2" cx="18" cy="18" r="18" fill="#E79704"/>
<path d="M27.5833 12.9564H25.5001C25.3814 11.6033 24.7616 10.3438 23.7628 9.42636C22.764 8.5089 21.4588 8 20.1044 8C18.75 8 17.4448 8.5089 16.446 9.42636C15.4472 10.3438 14.8274 11.6033 14.7087 12.9564H12.5838C12.4733 12.9564 12.3673 13.0004 12.2892 13.0788C12.2111 13.1572 12.1672 13.2635 12.1672 13.3743C12.1672 13.4851 12.2111 13.5914 12.2892 13.6698C12.3673 13.7481 12.4733 13.7922 12.5838 13.7922H15.5004V21.1761C15.5015 21.9881 15.8236 22.7665 16.3961 23.3407C16.9686 23.9149 17.7448 24.238 18.5545 24.2391H19.6669V27.5821C19.6669 27.693 19.7108 27.7992 19.789 27.8776C19.8671 27.956 19.9731 28 20.0836 28H24.2501C24.3606 28 24.4666 27.956 24.5447 27.8776C24.6229 27.7992 24.6668 27.693 24.6668 27.5821V19.5923C25.6167 19.3583 26.3334 18.3387 26.3334 17.1352C26.3334 15.9317 25.6167 14.9121 24.6668 14.6781V13.7922H27.5833C27.6938 13.7922 27.7998 13.7481 27.878 13.6698C27.9561 13.5914 28 13.4851 28 13.3743C28 13.2635 27.9561 13.1572 27.878 13.0788C27.7998 13.0004 27.6938 12.9564 27.5833 12.9564ZM20.0836 8.77764C21.2303 8.77288 22.3371 9.19939 23.1855 9.973C24.034 10.7466 24.5625 11.8111 24.6668 12.9564H15.5212C15.6251 11.8147 16.1507 10.7532 16.9948 9.98006C17.8388 9.20696 18.9405 8.7781 20.0836 8.77764ZM25.5001 17.1352C25.5001 18.0587 24.9376 18.8067 24.2501 18.8067C24.1396 18.8067 24.0336 18.8507 23.9555 18.9291C23.8774 19.0075 23.8335 19.1137 23.8335 19.2246V27.1642H20.5002V23.8212C20.5002 23.7104 20.4563 23.6041 20.3782 23.5257C20.3001 23.4474 20.1941 23.4033 20.0836 23.4033H18.5545C17.9655 23.4033 17.4006 23.1687 16.9841 22.751C16.5677 22.3333 16.3337 21.7668 16.3337 21.1761V13.7922H23.8335V15.0458C23.8335 15.1566 23.8774 15.2629 23.9555 15.3413C24.0336 15.4197 24.1396 15.4637 24.2501 15.4637C24.9376 15.4637 25.5001 16.2117 25.5001 17.1352ZM17.1878 18.673L18.0211 16.1657C18.0386 16.1136 18.0662 16.0654 18.1023 16.024C18.1384 15.9825 18.1822 15.9486 18.2314 15.9242C18.2805 15.8997 18.3339 15.8852 18.3887 15.8815C18.4434 15.8778 18.4983 15.8849 18.5503 15.9024C18.6023 15.92 18.6503 15.9477 18.6916 15.9838C18.7329 16.02 18.7668 16.064 18.7911 16.1133C18.8155 16.1626 18.83 16.2162 18.8337 16.2711C18.8374 16.3259 18.8303 16.381 18.8128 16.4332L17.9795 18.9404C17.9515 19.0234 17.8983 19.0955 17.8272 19.1465C17.7562 19.1975 17.671 19.2248 17.5837 19.2246C17.5385 19.2234 17.4937 19.2164 17.4503 19.2037C17.3983 19.1862 17.3502 19.1586 17.3088 19.1225C17.2674 19.0863 17.2335 19.0424 17.2091 18.993C17.1847 18.9437 17.1703 18.8901 17.1666 18.8351C17.163 18.7802 17.1702 18.7251 17.1878 18.673ZM19.6669 21.314C19.6669 21.4248 19.623 21.5311 19.5449 21.6094C19.4668 21.6878 19.3608 21.7318 19.2503 21.7318H17.5837C17.4732 21.7318 17.3672 21.6878 17.289 21.6094C17.2109 21.5311 17.167 21.4248 17.167 21.314C17.167 21.2031 17.2109 21.0968 17.289 21.0185C17.3672 20.9401 17.4732 20.8961 17.5837 20.8961H19.2503C19.3608 20.8961 19.4668 20.9401 19.5449 21.0185C19.623 21.0968 19.6669 21.2031 19.6669 21.314ZM8.4381 22.9855C8.3798 22.9823 8.32148 22.9914 8.26693 23.0123C8.21238 23.0332 8.16281 23.0653 8.12144 23.1067C8.08024 23.1481 8.04819 23.1979 8.02738 23.2526C8.00656 23.3073 7.99744 23.3658 8.00062 23.4242C8.02145 23.8421 8.13394 25.2128 8.62143 25.7059C9.00475 26.0861 9.92139 26.2366 10.5005 26.2951V27.5821C10.5005 27.693 10.5444 27.7992 10.6226 27.8776C10.7007 27.956 10.8067 28 10.9172 28C11.0277 28 11.1337 27.956 11.2118 27.8776C11.2899 27.7992 11.3338 27.693 11.3338 27.5821V26.2951C11.913 26.2366 12.8296 26.0861 13.213 25.7059C13.7004 25.2128 13.8338 23.8212 13.8338 23.4242C13.8366 23.3676 13.8279 23.311 13.8082 23.2579C13.7886 23.2048 13.7583 23.1562 13.7194 23.1152C13.6804 23.0741 13.6335 23.0414 13.5815 23.0192C13.5296 22.9969 13.4736 22.9854 13.4171 22.9855C12.6989 23 11.9907 23.1577 11.3338 23.4493V22.5342C11.913 22.4757 12.8296 22.3252 13.213 21.945C13.7004 21.4519 13.8338 20.0603 13.8338 19.6633C13.8366 19.6067 13.8279 19.5501 13.8082 19.497C13.7886 19.4439 13.7583 19.3953 13.7194 19.3543C13.6804 19.3132 13.6335 19.2806 13.5815 19.2583C13.5296 19.236 13.4736 19.2245 13.4171 19.2246C12.6989 19.2391 11.9907 19.3968 11.3338 19.6884V18.7733C11.913 18.7148 12.8296 18.5643 13.213 18.1841C13.7004 17.691 13.8338 16.2994 13.8338 15.9024C13.8366 15.8458 13.8279 15.7892 13.8082 15.7361C13.7886 15.683 13.7583 15.6344 13.7194 15.5934C13.6804 15.5523 13.6335 15.5197 13.5815 15.4974C13.5296 15.4751 13.4736 15.4636 13.4171 15.4637C12.6989 15.4782 11.9907 15.6359 11.3338 15.9275V15.4637C11.3338 15.3528 11.2899 15.2466 11.2118 15.1682C11.1337 15.0898 11.0277 15.0458 10.9172 15.0458C10.8067 15.0458 10.7007 15.0898 10.6226 15.1682C10.5444 15.2466 10.5005 15.3528 10.5005 15.4637V15.9275C9.8501 15.6386 9.14928 15.481 8.4381 15.4637C8.3798 15.4605 8.32148 15.4696 8.26693 15.4905C8.21238 15.5114 8.16281 15.5435 8.12144 15.5849C8.08024 15.6264 8.04819 15.6761 8.02738 15.7308C8.00656 15.7855 7.99744 15.844 8.00062 15.9024C8.02145 16.3203 8.13394 17.691 8.62143 18.1841C9.00475 18.5643 9.92139 18.7148 10.5005 18.7733V19.6884C9.8501 19.3995 9.14928 19.2419 8.4381 19.2246C8.3798 19.2214 8.32148 19.2305 8.26693 19.2514C8.21238 19.2723 8.16281 19.3044 8.12144 19.3458C8.08024 19.3872 8.04819 19.437 8.02738 19.4917C8.00656 19.5464 7.99744 19.6049 8.00062 19.6633C8.02145 20.0812 8.13394 21.4519 8.62143 21.945C9.00475 22.3252 9.92139 22.4757 10.5005 22.5342V23.4493C9.8501 23.1604 9.14928 23.0027 8.4381 22.9855ZM9.21308 25.1125C9.01266 24.7235 8.89759 24.2961 8.87559 23.8588C9.31155 23.8809 9.73776 23.9963 10.1255 24.1973C10.326 24.5862 10.441 25.0137 10.463 25.4509C10.0271 25.4289 9.60087 25.3135 9.21308 25.1125ZM11.713 24.2015C12.1008 24.0005 12.527 23.8851 12.963 23.863C12.941 24.3003 12.8259 24.7277 12.6255 25.1166C12.2377 25.3176 11.8115 25.4331 11.3755 25.4551C11.3975 25.0179 11.5126 24.5904 11.713 24.2015ZM11.713 20.4406C12.1008 20.2396 12.527 20.1242 12.963 20.1021C12.941 20.5394 12.8259 20.9668 12.6255 21.3557C12.2377 21.5568 11.8115 21.6722 11.3755 21.6942C11.3975 21.257 11.5126 20.8295 11.713 20.4406ZM11.713 16.6797C12.1008 16.4787 12.527 16.3633 12.963 16.3412C12.941 16.7785 12.8259 17.2059 12.6255 17.5949C12.2377 17.7959 11.8115 17.9113 11.3755 17.9333C11.3975 17.4961 11.5126 17.0686 11.713 16.6797ZM9.21308 17.5907C9.01266 17.2017 8.89759 16.7743 8.87559 16.337C9.31155 16.3591 9.73776 16.4745 10.1255 16.6755C10.326 17.0645 10.441 17.4919 10.463 17.9292C10.0271 17.9071 9.60087 17.7917 9.21308 17.5907ZM9.21308 21.3516C9.01266 20.9626 8.89759 20.5352 8.87559 20.0979C9.31155 20.12 9.73776 20.2354 10.1255 20.4364C10.326 20.8254 10.441 21.2528 10.463 21.6901C10.0271 21.668 9.60087 21.5526 9.21308 21.3516Z" fill="#E79704"/>
</svg>
