<svg width="36" height="36" viewBox="0 0 36 36" fill="none" xmlns="http://www.w3.org/2000/svg">
<circle opacity="0.2" cx="18" cy="18" r="18" fill="#DF421A"/>
<path d="M11.125 18.9961V24.8752C11.125 25.0576 11.1974 25.2324 11.3264 25.3614C11.4553 25.4903 11.6302 25.5627 11.8125 25.5627H24.1875C24.3698 25.5627 24.5447 25.4903 24.6736 25.3614C24.8026 25.2324 24.875 25.0576 24.875 24.8752V18.9962" stroke="#DF421A" stroke-width="1.5" stroke-linecap="round" stroke-linejoin="round"/>
<path d="M11.6436 10.4375H24.3564C24.5058 10.4375 24.6512 10.4862 24.7704 10.5761C24.8897 10.6661 24.9764 10.7925 25.0175 10.9361L26.25 15.25H9.75L10.9825 10.9361C11.0236 10.7925 11.1103 10.6661 11.2296 10.5761C11.3488 10.4862 11.4942 10.4375 11.6436 10.4375Z" stroke="#DF421A" stroke-width="1.5" stroke-linecap="round" stroke-linejoin="round"/>
<path d="M15.25 15.25V16.625C15.25 17.3543 14.9603 18.0538 14.4445 18.5695C13.9288 19.0853 13.2293 19.375 12.5 19.375C11.7707 19.375 11.0712 19.0853 10.5555 18.5695C10.0397 18.0538 9.75 17.3543 9.75 16.625V15.25" stroke="#DF421A" stroke-width="1.5" stroke-linecap="round" stroke-linejoin="round"/>
<path d="M20.75 15.25V16.625C20.75 17.3543 20.4603 18.0538 19.9445 18.5695C19.4288 19.0853 18.7293 19.375 18 19.375C17.2707 19.375 16.5712 19.0853 16.0555 18.5695C15.5397 18.0538 15.25 17.3543 15.25 16.625V15.25" stroke="#DF421A" stroke-width="1.5" stroke-linecap="round" stroke-linejoin="round"/>
<path d="M26.25 15.25V16.625C26.25 17.3543 25.9603 18.0538 25.4445 18.5695C24.9288 19.0853 24.2293 19.375 23.5 19.375C22.7707 19.375 22.0712 19.0853 21.5555 18.5695C21.0397 18.0538 20.75 17.3543 20.75 16.625V15.25" stroke="#DF421A" stroke-width="1.5" stroke-linecap="round" stroke-linejoin="round"/>
</svg>
