<svg width="64" height="64" viewBox="0 0 64 64" fill="none" xmlns="http://www.w3.org/2000/svg">
<circle opacity="0.2" cx="32" cy="32" r="32" fill="#DF421A"/>
<path d="M36.5 26H27.5V30.5H36.5V26Z" stroke="#DF421A" stroke-width="2" stroke-linecap="round" stroke-linejoin="round"/>
<path d="M39.5 40.25V23.75C39.5 23.3358 39.1642 23 38.75 23H25.25C24.8358 23 24.5 23.3358 24.5 23.75V40.25C24.5 40.6642 24.8358 41 25.25 41H38.75C39.1642 41 39.5 40.6642 39.5 40.25Z" stroke="#DF421A" stroke-width="2" stroke-linecap="round" stroke-linejoin="round"/>
<path d="M28.25 35C28.8713 35 29.375 34.4963 29.375 33.875C29.375 33.2537 28.8713 32.75 28.25 32.75C27.6287 32.75 27.125 33.2537 27.125 33.875C27.125 34.4963 27.6287 35 28.25 35Z" fill="#DF421A"/>
<path d="M32 35C32.6213 35 33.125 34.4963 33.125 33.875C33.125 33.2537 32.6213 32.75 32 32.75C31.3787 32.75 30.875 33.2537 30.875 33.875C30.875 34.4963 31.3787 35 32 35Z" fill="#DF421A"/>
<path d="M35.75 35C36.3713 35 36.875 34.4963 36.875 33.875C36.875 33.2537 36.3713 32.75 35.75 32.75C35.1287 32.75 34.625 33.2537 34.625 33.875C34.625 34.4963 35.1287 35 35.75 35Z" fill="#DF421A"/>
<path d="M28.25 38.75C28.8713 38.75 29.375 38.2463 29.375 37.625C29.375 37.0037 28.8713 36.5 28.25 36.5C27.6287 36.5 27.125 37.0037 27.125 37.625C27.125 38.2463 27.6287 38.75 28.25 38.75Z" fill="#DF421A"/>
<path d="M32 38.75C32.6213 38.75 33.125 38.2463 33.125 37.625C33.125 37.0037 32.6213 36.5 32 36.5C31.3787 36.5 30.875 37.0037 30.875 37.625C30.875 38.2463 31.3787 38.75 32 38.75Z" fill="#DF421A"/>
<path d="M35.75 38.75C36.3713 38.75 36.875 38.2463 36.875 37.625C36.875 37.0037 36.3713 36.5 35.75 36.5C35.1287 36.5 34.625 37.0037 34.625 37.625C34.625 38.2463 35.1287 38.75 35.75 38.75Z" fill="#DF421A"/>
</svg>
