<svg width="36" height="36" viewBox="0 0 36 36" fill="none" xmlns="http://www.w3.org/2000/svg">
<circle opacity="0.2" cx="18" cy="18" r="18" fill="#20458A"/>
<g clip-path="url(#clip0_457_10537)">
<path d="M10.1255 25.5238C10.3169 25.5575 10.4992 25.4303 10.5332 25.2392C10.5672 25.048 10.4398 24.8655 10.2486 24.8315C8.19424 24.4663 6.70313 22.6841 6.70313 20.5939C6.70313 18.2205 8.63397 16.2897 11.0074 16.2897C11.5734 16.2897 12.1143 16.3997 12.6098 16.5992L12.3953 17.0287C11.9647 16.8605 11.4968 16.7671 11.0074 16.7671C8.89727 16.7671 7.1806 18.4838 7.1806 20.5939C7.1806 22.704 8.89727 24.4207 11.0074 24.4207C12.9989 24.4207 14.6392 22.8913 14.8173 20.9455H15.2968C15.1404 22.8812 13.7042 24.487 11.7661 24.8315C11.575 24.8655 11.4475 25.048 11.4816 25.2392C11.5118 25.4096 11.6601 25.5292 11.8273 25.5292C11.8477 25.5292 11.8684 25.5275 11.8892 25.5238C13.8586 25.1736 15.3821 23.7044 15.8581 21.8381C16.0775 22.0404 16.3504 22.1856 16.6529 22.2498V22.9682H16.3449C16.1507 22.9682 15.9934 23.1256 15.9934 23.3198C15.9934 23.514 16.1507 23.6714 16.3449 23.6714H17.664C17.8582 23.6714 18.0156 23.514 18.0156 23.3198C18.0156 23.1256 17.8582 22.9682 17.664 22.9682H17.3561V22.2498C18.1213 22.0875 18.6973 21.4068 18.6973 20.5939C18.6973 20.215 18.5722 19.8649 18.3612 19.5825L22.5196 14.9767L22.9159 16.0379C21.1885 16.8285 19.9853 18.5733 19.9853 20.5939C19.9853 23.3549 22.2316 25.6012 24.9926 25.6012C27.7537 25.6012 30 23.3549 30 20.5939C30 17.8328 27.7537 15.5865 24.9926 15.5865C24.5002 15.5865 24.0243 15.6583 23.5744 15.7914L22.3709 12.5687H24.3851C24.5241 12.9069 24.8567 13.1459 25.2444 13.1459C25.3196 13.1459 25.3809 13.2072 25.3809 13.2824C25.3809 13.3576 25.3196 13.4188 25.2444 13.4188H24.8165C24.3043 13.4188 23.8876 13.8356 23.8876 14.3477C23.8876 14.8598 24.3044 15.2765 24.8165 15.2765H25.2444C26.344 15.2765 27.2386 14.3819 27.2386 13.2823C27.2386 12.1828 26.344 11.2882 25.2444 11.2882C24.8567 11.2882 24.5241 11.5272 24.3851 11.8654H21.8643C21.6239 11.8654 21.4482 12.1067 21.535 12.34L21.8915 13.2948H14.7218L14.4979 12.6955C14.6405 12.607 14.7619 12.4838 14.8475 12.3332C14.9038 12.2341 15.0096 12.1724 15.1237 12.1724H16.6187C17.0324 12.1724 17.3143 11.7528 17.1584 11.3698L17.1584 11.3698C16.9182 10.7803 16.3516 10.3994 15.7151 10.3994H12.1134C11.6331 10.3994 11.2423 10.7902 11.2423 11.2705C11.2423 12.1413 11.9507 12.8497 12.8215 12.8497H13.805L14.0949 13.6261L12.9249 15.9683C12.334 15.7224 11.6863 15.5864 11.0074 15.5864C8.24631 15.5865 6 17.8329 6 20.5939C6 23.0255 7.73504 25.0988 10.1255 25.5238ZM24.9926 16.2897C27.366 16.2897 29.2969 18.2205 29.2969 20.5939C29.2969 22.9673 27.366 24.8982 24.9926 24.8982C22.6192 24.8982 20.6884 22.9673 20.6884 20.5939C20.6884 18.8746 21.7018 17.3877 23.1627 16.6987L23.3303 17.1475C22.0505 17.7673 21.1659 19.0792 21.1659 20.5939C21.1659 22.704 22.8826 24.4207 24.9927 24.4207C26.7654 24.4207 28.2945 23.2184 28.7113 21.497C28.757 21.3083 28.6411 21.1183 28.4524 21.0726C28.2636 21.0267 28.0737 21.1428 28.028 21.3315C27.6878 22.7364 26.4397 23.7175 24.9927 23.7175C23.2703 23.7175 21.869 22.3162 21.869 20.5939C21.869 19.3806 22.5648 18.3274 23.5779 17.8104L24.3278 19.8185C24.1093 20.0061 23.9705 20.284 23.9705 20.5939C23.9705 21.1575 24.429 21.6161 24.9927 21.6161C25.5564 21.6161 26.0149 21.1576 26.0149 20.5939C26.0149 20.0302 25.5564 19.5717 24.9927 19.5717C24.9905 19.5717 24.9884 19.5718 24.9863 19.5718L24.2362 17.5633C24.4786 17.5028 24.7319 17.4702 24.9927 17.4702C26.4397 17.4702 27.6879 18.4514 28.028 19.8562C28.0737 20.0449 28.2636 20.1608 28.4524 20.1152C28.6411 20.0695 28.7571 19.8795 28.7113 19.6908C28.2946 17.9693 26.7654 16.767 24.9927 16.767C24.6454 16.767 24.3092 16.8144 23.9891 16.9014L23.8212 16.4516C24.1936 16.3462 24.5866 16.2897 24.9926 16.2897ZM24.9926 20.2749C25.1686 20.2749 25.3118 20.418 25.3118 20.594C25.3118 20.7699 25.1686 20.913 24.9926 20.913C24.8167 20.913 24.6736 20.7699 24.6736 20.594C24.6736 20.418 24.8167 20.2749 24.9926 20.2749ZM13.2384 16.9142C14.386 17.6126 15.1826 18.8326 15.2972 20.2424H14.8173C14.7053 19.0193 14.0157 17.9612 13.0239 17.3436L13.2384 16.9142ZM11.9673 20.2424C11.9191 20.1112 11.8446 19.9928 11.7505 19.8931L12.7081 17.9759C13.4709 18.4732 14.004 19.2939 14.1107 20.2424H11.9673ZM11.0074 20.2749C11.1833 20.2749 11.3264 20.418 11.3264 20.594C11.3264 20.7699 11.1833 20.913 11.0074 20.913C10.8314 20.913 10.6882 20.7699 10.6882 20.594C10.6882 20.418 10.8314 20.2749 11.0074 20.2749ZM11.0074 23.7176C9.28503 23.7176 7.88373 22.3163 7.88373 20.5939C7.88373 18.8715 9.28503 17.4702 11.0074 17.4702C11.384 17.4702 11.7453 17.5373 12.0799 17.66L11.1216 19.5783C11.0841 19.574 11.046 19.5717 11.0074 19.5717C10.4437 19.5717 9.98511 20.0302 9.98511 20.5939C9.98511 21.1576 10.4437 21.6161 11.0074 21.6161C11.4475 21.6161 11.8236 21.3365 11.9673 20.9455H14.1107C13.9353 22.5029 12.6108 23.7176 11.0074 23.7176ZM17.3561 21.518V20.5939C17.3561 20.3997 17.1987 20.2424 17.0045 20.2424C16.8103 20.2424 16.6529 20.3997 16.6529 20.5939V21.518C16.2805 21.3758 16.0148 21.0157 16.0148 20.5939C16.0148 20.0482 16.4588 19.6042 17.0045 19.6042C17.5502 19.6042 17.9942 20.0482 17.9942 20.5939C17.9942 21.0157 17.7285 21.3758 17.3561 21.518ZM25.2444 11.9915C25.9563 11.9915 26.5354 12.5706 26.5354 13.2825C26.5354 13.9944 25.9563 14.5735 25.2444 14.5735H24.8165C24.692 14.5735 24.5908 14.4722 24.5908 14.3478C24.5908 14.2234 24.692 14.1221 24.8165 14.1221H25.2444C25.7073 14.1221 26.084 13.7455 26.084 13.2825C26.084 12.8196 25.7073 12.4429 25.2444 12.4429C25.1199 12.4429 25.0187 12.3417 25.0187 12.2172C25.0187 12.0927 25.1199 11.9915 25.2444 11.9915ZM22.1541 13.9981L22.2424 14.2345L17.8329 19.1185C17.5879 18.9803 17.3054 18.9011 17.0046 18.9011C16.9419 18.9011 16.8802 18.9048 16.8193 18.9115L14.9844 13.9981H22.1541V13.9981ZM11.9454 11.2707C11.9454 11.1781 12.0207 11.1027 12.1133 11.1027H15.715C16.0003 11.1027 16.26 11.2422 16.4174 11.4695H15.1237C14.7572 11.4695 14.4171 11.6674 14.2361 11.986C14.1798 12.0852 14.0739 12.1468 13.9598 12.1468H12.8214C12.3384 12.1468 11.9454 11.7538 11.9454 11.2707ZM14.4311 14.5267L16.1513 19.1328C16.0459 19.1946 15.9476 19.2673 15.8583 19.3497C15.5246 18.0496 14.6805 16.9522 13.5534 16.2838L14.4311 14.5267Z" fill="#20458A"/>
</g>
<defs>
<clipPath id="clip0_457_10537">
<rect width="24" height="24" fill="white" transform="translate(6 6)"/>
</clipPath>
</defs>
</svg>
