<svg width="24" height="25" viewBox="0 0 24 25" fill="none" xmlns="http://www.w3.org/2000/svg">
<path d="M0.0625 24.4375V0.5625H23.9375V24.4375H0.0625Z" stroke="#B7B6B6" stroke-width="0.125"/>
<path d="M12 20.75C12 20.75 2.625 15.5 2.625 9.12501C2.62519 7.99826 3.01561 6.90635 3.72989 6.03493C4.44416 5.16351 5.4382 4.56636 6.54299 4.34501C7.64778 4.12367 8.79514 4.29179 9.78999 4.82079C10.7848 5.34979 11.5658 6.20702 12 7.24673L12 7.24673C12.4342 6.20702 13.2152 5.34979 14.21 4.82079C15.2049 4.29179 16.3522 4.12367 17.457 4.34501C18.5618 4.56636 19.5558 5.16351 20.2701 6.03493C20.9844 6.90635 21.3748 7.99826 21.375 9.12501C21.375 15.5 12 20.75 12 20.75Z" stroke="#333333" stroke-width="2" stroke-linecap="round" stroke-linejoin="round"/>
</svg>
