<svg width="12" height="12" viewBox="0 0 12 12" fill="none" xmlns="http://www.w3.org/2000/svg">
<path fill-rule="evenodd" clip-rule="evenodd" d="M5.96476 7.03841C6.48033 7.03841 6.89828 6.62047 6.89828 6.1049C6.89828 5.58933 6.48033 5.17139 5.96476 5.17139C5.4492 5.17139 5.03125 5.58933 5.03125 6.1049C5.03125 6.62047 5.4492 7.03841 5.96476 7.03841Z" stroke="#422F8A" stroke-opacity="0.87" stroke-width="0.933514" stroke-linecap="round" stroke-linejoin="round"/>
<path fill-rule="evenodd" clip-rule="evenodd" d="M9.69914 7.03841C10.2147 7.03841 10.6327 6.62047 10.6327 6.1049C10.6327 5.58933 10.2147 5.17139 9.69914 5.17139C9.18357 5.17139 8.76562 5.58933 8.76562 6.1049C8.76562 6.62047 9.18357 7.03841 9.69914 7.03841Z" stroke="#422F8A" stroke-opacity="0.87" stroke-width="0.933514" stroke-linecap="round" stroke-linejoin="round"/>
<path fill-rule="evenodd" clip-rule="evenodd" d="M2.23039 7.03841C2.74595 7.03841 3.1639 6.62047 3.1639 6.1049C3.1639 5.58933 2.74595 5.17139 2.23039 5.17139C1.71482 5.17139 1.29688 5.58933 1.29688 6.1049C1.29688 6.62047 1.71482 7.03841 2.23039 7.03841Z" stroke="#422F8A" stroke-opacity="0.87" stroke-width="0.933514" stroke-linecap="round" stroke-linejoin="round"/>
</svg>
