<svg width="112" height="112" viewBox="0 0 112 112" fill="none" xmlns="http://www.w3.org/2000/svg">
<path d="M101.081 48.72L96.5072 68.2267C92.5872 85.0733 84.8405 91.8867 70.2805 90.4867C67.9472 90.3 65.4272 89.88 62.7205 89.2267L54.8805 87.36C35.4205 82.74 29.4005 73.1267 33.9738 53.62L38.5472 34.0667C39.4805 30.1 40.6005 26.6467 42.0005 23.8C47.4605 12.5067 56.7472 9.47333 72.3338 13.16L80.1272 14.98C99.6805 19.5533 105.654 29.2133 101.081 48.72Z" stroke="#BDBDBD" stroke-width="3.5" stroke-linecap="round" stroke-linejoin="round"/>
<path d="M70.2796 90.4871C67.3863 92.4471 63.7463 94.0804 59.313 95.5271L51.9396 97.9537C33.413 103.927 23.6596 98.9337 17.6396 80.4071L11.6663 61.9737C5.69297 43.4471 10.6396 33.6471 29.1663 27.6737L36.5396 25.2471C38.453 24.6404 40.273 24.1271 41.9996 23.8004C40.5996 26.6471 39.4796 30.1004 38.5463 34.0671L33.973 53.6204C29.3996 73.1271 35.4196 82.7404 54.8796 87.3604L62.7196 89.2271C65.4263 89.8804 67.9463 90.3004 70.2796 90.4871Z" stroke="#BDBDBD" stroke-width="3.5" stroke-linecap="round" stroke-linejoin="round"/>
</svg>
