<svg width="25" height="25" viewBox="0 0 25 25" fill="none" xmlns="http://www.w3.org/2000/svg">
<path d="M8.5 22.25C9.32843 22.25 10 21.5784 10 20.75C10 19.9216 9.32843 19.25 8.5 19.25C7.67157 19.25 7 19.9216 7 20.75C7 21.5784 7.67157 22.25 8.5 22.25Z" fill="#23212B"/>
<path d="M18.25 22.25C19.0784 22.25 19.75 21.5784 19.75 20.75C19.75 19.9216 19.0784 19.25 18.25 19.25C17.4216 19.25 16.75 19.9216 16.75 20.75C16.75 21.5784 17.4216 22.25 18.25 22.25Z" fill="#23212B"/>
<path d="M4.96429 7.25H21.7857L19.3108 15.9121C19.2213 16.2255 19.0321 16.5012 18.7718 16.6975C18.5116 16.8938 18.1945 17 17.8685 17H8.88145C8.55549 17 8.23839 16.8938 7.97816 16.6975C7.71792 16.5012 7.52872 16.2255 7.43917 15.9121L4.04827 4.04396C4.0035 3.88725 3.90889 3.74939 3.77878 3.65124C3.64866 3.55309 3.49011 3.5 3.32713 3.5H1.75" stroke="#23212B" stroke-width="2" stroke-linecap="round" stroke-linejoin="round"/>
</svg>
