<svg width="18" height="22" viewBox="0 0 18 22" fill="none" xmlns="http://www.w3.org/2000/svg">
<path d="M9.00112 0.929688C9.82397 0.929614 10.6155 1.24512 11.2127 1.81121C11.8099 2.3773 12.1672 3.15086 12.2111 3.97254L12.2154 4.14397H16.9297C17.0926 4.14402 17.2493 4.2059 17.3684 4.31709C17.4874 4.42829 17.5597 4.58051 17.5709 4.74301C17.582 4.90551 17.531 5.06617 17.4282 5.19251C17.3254 5.31886 17.1785 5.40149 17.0171 5.42369L16.9297 5.42969H16.022L14.9763 18.3323C14.911 19.1372 14.5452 19.888 13.9515 20.4355C13.3578 20.983 12.5798 21.2869 11.7723 21.2868H6.22997C5.42241 21.2869 4.64442 20.983 4.05075 20.4355C3.45707 19.888 3.09122 19.1372 3.02597 18.3323L1.9794 5.42969H1.07254C0.917198 5.42968 0.767109 5.37342 0.650033 5.27132C0.532957 5.16921 0.456815 5.02816 0.435687 4.87426L0.429688 4.78683C0.429694 4.63148 0.485953 4.48139 0.588059 4.36432C0.690166 4.24724 0.831213 4.1711 0.985116 4.14997L1.07254 4.14397H5.78683C5.78683 3.29149 6.12548 2.47393 6.72827 1.87113C7.33107 1.26833 8.14863 0.929688 9.00112 0.929688ZM14.7328 5.42969H3.2694L4.3074 18.2285C4.3466 18.7115 4.56615 19.162 4.92238 19.4904C5.27862 19.8189 5.74543 20.0012 6.22997 20.0011H11.7723C12.2568 20.0012 12.7236 19.8189 13.0798 19.4904C13.4361 19.162 13.6556 18.7115 13.6948 18.2285L14.732 5.42969H14.7328ZM7.07254 8.64397C7.22789 8.64398 7.37798 8.70024 7.49506 8.80234C7.61213 8.90445 7.68827 9.0455 7.7094 9.1994L7.7154 9.28683V16.144C7.71535 16.3068 7.65348 16.4636 7.54228 16.5827C7.43109 16.7017 7.27886 16.774 7.11636 16.7851C6.95386 16.7962 6.79321 16.7452 6.66686 16.6425C6.54051 16.5397 6.45789 16.3928 6.43569 16.2314L6.42969 16.144V9.28683C6.42969 9.11633 6.49742 8.95282 6.61798 8.83226C6.73853 8.7117 6.90205 8.64397 7.07254 8.64397ZM10.9297 8.64397C11.085 8.64398 11.2351 8.70024 11.3522 8.80234C11.4693 8.90445 11.5454 9.0455 11.5665 9.1994L11.5725 9.28683V16.144C11.5725 16.3068 11.5106 16.4636 11.3994 16.5827C11.2882 16.7017 11.136 16.774 10.9735 16.7851C10.811 16.7962 10.6504 16.7452 10.524 16.6425C10.3977 16.5397 10.315 16.3928 10.2928 16.2314L10.2868 16.144V9.28683C10.2868 9.11633 10.3546 8.95282 10.4751 8.83226C10.5957 8.7117 10.7592 8.64397 10.9297 8.64397ZM9.00112 2.2154C8.51244 2.21534 8.04195 2.4008 7.68476 2.73429C7.32756 3.06778 7.11028 3.52444 7.07683 4.01197L7.07254 4.14397H10.9297L10.9254 4.01197C10.892 3.52444 10.6747 3.06778 10.3175 2.73429C9.96028 2.4008 9.4898 2.21534 9.00112 2.2154Z" fill="#DF421A"/>
</svg>
