<svg width="24" height="24" viewBox="0 0 24 24" fill="none" xmlns="http://www.w3.org/2000/svg">
<path d="M22.5938 12.9364H22.125V9.6552C22.125 8.36163 21.2167 7.27695 20.0045 7.00357L17.871 3.30823C17.5583 2.76668 17.0535 2.37926 16.4494 2.2174C16.0229 2.10316 15.5831 2.11155 15.1707 2.23605L13.6193 0.684633C12.7064 -0.228164 11.2212 -0.228258 10.3083 0.684633L4.05661 6.93645H2.71875C1.21964 6.93645 0 8.15609 0 9.6552V21.2802C0 22.7793 1.21964 23.9989 2.71875 23.9989H8.95312C9.21197 23.9989 9.42188 23.789 9.42188 23.5302C9.42188 23.2714 9.21197 23.0614 8.95312 23.0614H2.71875C1.73658 23.0614 0.9375 22.2624 0.9375 21.2802V9.6552C0.9375 8.67302 1.73658 7.87395 2.71875 7.87395H19.4062C20.3884 7.87395 21.1875 8.67302 21.1875 9.6552V12.9364H17.7188C16.323 12.9364 15.1875 14.072 15.1875 15.4677C15.1875 16.8634 16.323 17.9989 17.7188 17.9989H21.1875V21.2802C21.1875 22.2624 20.3884 23.0614 19.4062 23.0614H13.1719C12.913 23.0614 12.7031 23.2714 12.7031 23.5302C12.7031 23.789 12.913 23.9989 13.1719 23.9989H19.4062C20.9054 23.9989 22.125 22.7793 22.125 21.2802V17.9989H22.5938C23.3692 17.9989 24 17.3681 24 16.5927V14.3427C24 13.5673 23.3692 12.9364 22.5938 12.9364ZM16.2067 3.12298C16.5689 3.22001 16.8716 3.45227 17.0591 3.77698L18.8832 6.93645H8.77936L15.1416 3.26318C15.4663 3.07577 15.8445 3.0259 16.2067 3.12298ZM10.9713 1.34759C11.2364 1.08246 11.5889 0.936445 11.9638 0.936445C12.3388 0.936445 12.6913 1.08246 12.9564 1.34759L14.2844 2.6756L6.90441 6.93645H5.38247L10.9713 1.34759ZM23.0625 16.5927C23.0625 16.8512 22.8522 17.0614 22.5938 17.0614H17.7188C16.8399 17.0614 16.125 16.3465 16.125 15.4677C16.125 14.5889 16.8399 13.8739 17.7188 13.8739H22.5938C22.8522 13.8739 23.0625 14.0842 23.0625 14.3427V16.5927Z" fill="#333333"/>
<path d="M17.6406 14.999C17.5173 14.999 17.3964 15.0491 17.3092 15.1364C17.222 15.2236 17.1719 15.344 17.1719 15.4678C17.1719 15.5911 17.222 15.712 17.3092 15.7991C17.3964 15.8863 17.5173 15.9365 17.6406 15.9365C17.7644 15.9365 17.8848 15.8864 17.972 15.7991C18.0596 15.712 18.1094 15.5911 18.1094 15.4678C18.1094 15.3445 18.0596 15.2236 17.972 15.1364C17.8848 15.0492 17.7644 14.999 17.6406 14.999Z" fill="#333333"/>
<path d="M11.0625 23.0615C10.9392 23.0615 10.8183 23.1116 10.7311 23.1989C10.6439 23.2861 10.5938 23.407 10.5938 23.5303C10.5938 23.6536 10.6439 23.7745 10.7311 23.8616C10.8183 23.9488 10.9392 23.999 11.0625 23.999C11.1858 23.999 11.3067 23.9489 11.3939 23.8616C11.481 23.7745 11.5312 23.6536 11.5312 23.5303C11.5312 23.407 11.4811 23.2861 11.3939 23.1989C11.3067 23.1117 11.1858 23.0615 11.0625 23.0615Z" fill="#333333"/>
</svg>
